<svg aria-hidden="true" style="width:0;height:0;position:absolute;overflow:hidden" xmlns="http://www.w3.org/2000/svg"><defs><symbol id="icon-twitter" viewBox="0 0 32 32"><path d="M15.149 1.606C7.137 1.606.642 8.101.642 16.113S7.137 30.62 15.149 30.62s14.507-6.495 14.507-14.507S23.161 1.606 15.149 1.606zm5.901 11.883c.006.124.008.248.008.369 0 3.778-2.873 8.131-8.128 8.131a8.048 8.048 0 0 1-4.379-1.285c.222.027.45.038.681.038 1.339 0 2.57-.455 3.548-1.222a2.86 2.86 0 0 1-2.668-1.983c.428.081.869.064 1.289-.05a2.858 2.858 0 0 1-2.292-2.802v-.035c.385.213.827.343 1.295.358a2.854 2.854 0 0 1-.884-3.817 8.129 8.129 0 0 0 5.889 2.987 2.862 2.862 0 0 1 1.433-3.175 2.857 2.857 0 0 1 3.437.568 5.735 5.735 0 0 0 1.813-.694 2.869 2.869 0 0 1-1.256 1.582 5.702 5.702 0 0 0 1.641-.452 5.792 5.792 0 0 1-1.425 1.479z"/></symbol><symbol id="icon-linkedin" viewBox="0 0 32 32"><path d="M16.875 1.606c-8.012 0-14.507 6.495-14.507 14.507S8.863 30.62 16.875 30.62s14.507-6.495 14.507-14.507S24.887 1.606 16.875 1.606zm-3.551 20.519h-2.938v-9.453h2.938v9.453zm-1.487-10.614c-.928 0-1.528-.657-1.528-1.47 0-.83.618-1.467 1.566-1.467s1.528.638 1.546 1.467c0 .813-.598 1.47-1.584 1.47zm12.216 10.614h-2.938v-5.239c0-1.219-.426-2.048-1.488-2.048-.812 0-1.294.561-1.507 1.1-.079.192-.098.464-.098.734v5.45h-2.939v-6.437c0-1.18-.038-2.167-.077-3.016h2.552l.134 1.313h.059c.387-.617 1.334-1.526 2.919-1.526 1.933 0 3.382 1.295 3.382 4.078v5.59z"/></symbol><symbol id="icon-facebook" viewBox="0 0 32 32"><path d="M1.607 16.197c0 7.513 5.456 13.76 12.593 15.027V20.31h-3.778v-4.197H14.2v-3.358c0-3.778 2.434-5.876 5.877-5.876 1.09 0 2.267.167 3.357.335v3.862h-1.931c-1.847 0-2.267.923-2.267 2.099v2.938h4.03l-.671 4.197h-3.358v10.914c7.136-1.267 12.593-7.513 12.593-15.027 0-8.358-6.8-15.195-15.111-15.195S1.608 7.84 1.608 16.197z"/></symbol><symbol id="icon-electric" viewBox="0 0 32 32"><path fill="#7595fd" style="fill:var(--color1,#7595fd)" d="M.156 14.049h17.63v17.63H.156v-17.63z"/><path fill="#fff" style="fill:var(--color2,#fff)" d="M26.6 19.086c0-.693-.567-1.259-1.259-1.259h-2.518v2.519h2.518c.693 0 1.259-.567 1.259-1.259zm-1.259 3.778h-2.518v2.519h2.518c.693 0 1.259-.567 1.259-1.259s-.567-1.259-1.259-1.259zm-10.074-3.778h-2.518v5.037h2.518a2.526 2.526 0 0 0 2.518 2.519h3.778V16.568h-3.778a2.525 2.525 0 0 0-2.518 2.518z"/><path fill="#fff" style="fill:var(--color2,#fff)" d="M6.452 17.827a2.525 2.525 0 0 1 2.518-2.518h1.889c2.43 0 4.407-1.977 4.407-4.407s-1.977-4.407-4.407-4.407H6.452c-.693 0-1.259.567-1.259 1.259s.567 1.259 1.259 1.259h4.407c1.045 0 1.889.844 1.889 1.889s-.844 1.889-1.889 1.889H8.97c-2.783 0-5.037 2.254-5.037 5.037s2.254 5.037 5.037 5.037h2.518v-2.519H8.97a2.525 2.525 0 0 1-2.518-2.518z"/></symbol><symbol id="icon-consultation" viewBox="0 0 32 32"><path fill="#7595fd" style="fill:var(--color1,#7595fd)" d="M.156 14.204h17.63v17.63H.156v-17.63z"/><path fill="#292e3d" style="fill:var(--color3,#292e3d)" d="M14.007 9.167h3.778l4.143-4.156a1.256 1.256 0 0 1 1.788 0l3.249 3.261a1.257 1.257 0 0 1 0 1.776l-2.884 2.896H14.007v2.518a1.259 1.259 0 0 1-2.518 0v-3.778a2.516 2.516 0 0 1 2.519-2.519zm-7.555 6.296V20.5l-2.884 2.884a1.257 1.257 0 0 0 0 1.776l3.249 3.262a1.256 1.256 0 0 0 1.788 0l5.402-5.402h5.037a1.259 1.259 0 0 0 1.259-1.259v-1.259h1.259a1.263 1.263 0 0 0 1.26-1.26v-1.259h1.259a1.259 1.259 0 0 0 1.259-1.259v-1.259h-8.815v1.259a2.516 2.516 0 0 1-2.519 2.519h-2.518a2.516 2.516 0 0 1-2.519-2.519v-3.778l-2.518 2.518z"/></symbol><symbol id="icon-architecture" viewBox="0 0 32 32"><path fill="#7595fd" style="fill:var(--color1,#7595fd)" d="M.323 14.049h17.63v17.63H.323v-17.63z"/><path fill="#292e3d" style="fill:var(--color3,#292e3d)" d="m8.332 25.105.315 2.795 2.04-1.939 3.488-9.57a4.93 4.93 0 0 1-2.229-1.234l-3.614 9.948zm10.59-9.948a4.993 4.993 0 0 1-2.229 1.234l3.488 9.57 2.04 1.939.327-2.795-3.627-9.948zm.214-2.871c.378-1.964-.756-3.702-2.443-4.307V6.493c0-.693-.567-1.259-1.259-1.259s-1.259.567-1.259 1.259v1.486c-1.461.529-2.518 1.914-2.518 3.551a3.78 3.78 0 0 0 4.483 3.715c1.486-.277 2.707-1.473 2.997-2.959zm-3.702.504c-.693 0-1.259-.567-1.259-1.259s.567-1.259 1.259-1.259c.693 0 1.259.567 1.259 1.259s-.567 1.259-1.259 1.259z"/></symbol><symbol id="icon-renovation" viewBox="0 0 32 32"><path fill="#7595fd" style="fill:var(--color1,#7595fd)" d="M.323 14.204h17.63v17.63H.323v-17.63z"/><path fill="#fff" style="fill:var(--color2,#fff)" d="M24.878 5.389a3.152 3.152 0 0 0-3.148 3.148c0 .45.098.876.269 1.266l-2.462 2.769a5.008 5.008 0 0 0-2.845-.886c-.932 0-1.793.272-2.542.713l-2.864-2.862-.029.029a3.731 3.731 0 0 0 .398-1.657 3.78 3.78 0 0 0-6.449-2.671 3.78 3.78 0 0 0 2.671 6.449c.598 0 1.155-.151 1.657-.398l-.029.029 2.864 2.862a4.98 4.98 0 0 0-.714 2.544c0 1.255.479 2.391 1.24 3.275L9.65 23.243a3.113 3.113 0 0 0-1.143-.223c-1.735 0-3.148 1.412-3.148 3.148s1.413 3.148 3.148 3.148a3.152 3.152 0 0 0 3.148-3.148c0-.404-.083-.788-.223-1.145l3.574-3.574c.53.189 1.092.311 1.686.311a5.042 5.042 0 0 0 5.037-5.037c0-.801-.205-1.548-.539-2.221l2.666-3.001a3.12 3.12 0 0 0 1.021.185c1.737 0 3.148-1.412 3.148-3.148S26.613 5.39 24.877 5.39zm-8.185 13.852c-1.389 0-2.518-1.13-2.518-2.518s1.13-2.518 2.518-2.518c1.389 0 2.518 1.13 2.518 2.518s-1.13 2.518-2.518 2.518z"/></symbol><symbol id="icon-repair" viewBox="0 0 32 32"><path fill="#7595fd" style="fill:var(--color1,#7595fd)" d="M.113 14.049h17.63v17.63H.113v-17.63z"/><path fill="#fff" style="fill:var(--color2,#fff)" d="M22.779 21.605H20.26v-1.259H10.186v1.259H7.668v-1.259H2.631v6.296h25.185v-6.296h-5.037v1.259zm2.518-10.075h-3.778V9.012A2.525 2.525 0 0 0 19 6.494h-7.555a2.525 2.525 0 0 0-2.518 2.518v2.518H5.149a2.525 2.525 0 0 0-2.518 2.518v5.037h5.037v-2.518h2.518v2.518H20.26v-2.518h2.519v2.518h5.037v-5.037a2.525 2.525 0 0 0-2.519-2.518zm-6.296 0h-7.555V9.012h7.555v2.518z"/></symbol><symbol id="icon-construction" viewBox="0 0 32 32"><path fill="#7595fd" style="fill:var(--color1,#7595fd)" d="M.113 14.204h17.63v17.63H.113v-17.63z"/><path fill="#292e3d" style="fill:var(--color3,#292e3d)" d="M24.027 4.13H11.458a2.53 2.53 0 0 0-2.531 2.531v7.098l-5.921 5.846a1.256 1.256 0 0 0-.279 1.373 1.257 1.257 0 0 0 1.163.782v6.296a1.259 1.259 0 0 0 1.259 1.259h20.148a1.259 1.259 0 0 0 1.259-1.259V6.66a2.528 2.528 0 0 0-2.53-2.53zM13.866 20.64v6.156H6.409v-7.012l3.761-3.713 3.696 3.782v.787zm2.617-7.695h-2.518v-2.518h2.518v2.518zm5.037 10.074h-2.518V20.5h2.518v2.519zm0-5.037h-2.518v-2.518h2.518v2.518zm0-5.037h-2.518v-2.518h2.518v2.518z"/><path fill="#14171f" style="fill:var(--color4,#14171f)" d="M8.927 20.5h2.518v2.519H8.927V20.5z"/></symbol><symbol id="icon-pencil" viewBox="0 0 32 32"><path d="m29.203 22.322-6.989-6.989 1.977-1.977-4.722-4.722-1.977 1.977-6.989-6.989-5.956 5.956 6.989 6.989-5.994 5.994v4.722h4.722l5.994-5.994 6.989 6.989 5.956-5.956zm-15.879-7.543L8.111 9.578l2.393-2.393 1.599 1.599-1.499 1.499 1.776 1.776 1.499-1.499 1.826 1.826-2.38 2.393zm4.722 4.722 2.393-2.393 1.826 1.826-1.499 1.498 1.775 1.776 1.499-1.499 1.599 1.599-2.392 2.393-5.201-5.201zM20.82 7.29l3.196-3.197 4.72 4.72-3.196 3.197-4.72-4.72z"/></symbol><symbol id="icon-headphones" viewBox="0 0 32 32"><path d="M27.813 10.913a2.516 2.516 0 0 1 2.519 2.519v5.037a2.516 2.516 0 0 1-2.519 2.519h-1.337a10.078 10.078 0 0 1-9.996 8.814v-2.518a7.556 7.556 0 0 0 7.556-7.556v-7.556a7.556 7.556 0 1 0-15.112 0v8.815H5.146a2.516 2.516 0 0 1-2.519-2.519v-5.037a2.516 2.516 0 0 1 2.519-2.519h1.337a10.08 10.08 0 0 1 9.996-8.813 10.071 10.071 0 0 1 9.996 8.813h1.337zm-16.672 9.803 1.335-2.136a7.52 7.52 0 0 0 4.004 1.147 7.526 7.526 0 0 0 4.005-1.147l1.335 2.136a10.022 10.022 0 0 1-5.339 1.53 10.022 10.022 0 0 1-5.339-1.53z"/></symbol><symbol id="icon-logo" viewBox="0 0 27 32"><path fill="#2947a9" style="fill:var(--color5,#2947a9)" d="M13.732 24.224v6.957l12.201-7.047v-6.956l-12.201 7.046z"/><path fill="#0b267d" style="fill:var(--color6,#0b267d)" d="m19.194 10.787 6.02-3.479L13.732.675v6.957l5.462 3.155z"/><path fill="#91a1d4" style="fill:var(--color7,#91a1d4)" d="M8.99 12.864v6.959l4.742 2.738v-6.956L8.99 12.864z"/><path fill="#2947a9" style="fill:var(--color5,#2947a9)" d="m25.933 8.556-12.201 7.05v6.956l12.201-7.047V8.556zM2.255 7.305l5.984 3.499 5.492-3.171V.676L2.255 7.305z"/><path fill="#91a1d4" style="fill:var(--color7,#91a1d4)" d="M7.551 20.655V12.03L1.529 8.553v15.581l12.203 7.047v-6.957l-6.181-3.568z"/></symbol></defs></svg>