<svg aria-hidden="true" style="position: absolute; width: 0; height: 0; overflow: hidden;" version="1.1" xmlns="http://www.w3.org/2000/svg" xmlns:xlink="http://www.w3.org/1999/xlink">
<defs>
<symbol id="icon-arrow-right" viewBox="0 0 49 32">
<path d="M0.261 16.253c0 0.451 0.176 0.884 0.49 1.203s0.739 0.498 1.183 0.498h39.446l-10.526 10.702c-0.156 0.158-0.279 0.346-0.363 0.552s-0.128 0.428-0.128 0.652c0 0.224 0.043 0.445 0.128 0.652s0.207 0.394 0.363 0.553c0.156 0.158 0.34 0.284 0.543 0.369s0.421 0.129 0.641 0.129 0.438-0.044 0.641-0.129c0.203-0.086 0.388-0.211 0.543-0.369l13.379-13.607c0.156-0.158 0.279-0.346 0.364-0.552s0.128-0.428 0.128-0.652-0.043-0.445-0.128-0.652c-0.084-0.207-0.208-0.394-0.364-0.552l-13.379-13.607c-0.155-0.158-0.34-0.284-0.543-0.369s-0.421-0.13-0.641-0.13-0.438 0.044-0.641 0.13c-0.203 0.086-0.388 0.211-0.543 0.369s-0.279 0.346-0.363 0.552c-0.084 0.207-0.128 0.428-0.128 0.652s0.043 0.445 0.128 0.652c0.084 0.207 0.207 0.394 0.363 0.553l10.526 10.702-39.446-0c-0.444 0-0.869 0.179-1.183 0.498s-0.49 0.752-0.49 1.203z"></path>
</symbol>
<symbol id="icon-arrow-left" viewBox="0 0 49 32">
<path d="M48.61 16.253c0-0.451-0.176-0.884-0.49-1.203s-0.739-0.498-1.183-0.498h-39.446l10.526-10.702c0.155-0.158 0.279-0.346 0.363-0.553s0.127-0.428 0.127-0.652c0-0.224-0.043-0.445-0.127-0.652s-0.207-0.394-0.363-0.552c-0.155-0.158-0.34-0.284-0.543-0.369s-0.421-0.13-0.641-0.13c-0.22 0-0.438 0.044-0.641 0.13s-0.388 0.211-0.543 0.369l-13.379 13.607c-0.156 0.158-0.279 0.346-0.364 0.552s-0.128 0.428-0.128 0.652c0 0.224 0.043 0.445 0.128 0.652s0.208 0.394 0.364 0.552l13.379 13.607c0.155 0.158 0.34 0.284 0.543 0.369s0.421 0.129 0.641 0.129 0.438-0.044 0.641-0.129c0.203-0.086 0.388-0.211 0.543-0.369s0.279-0.346 0.363-0.553c0.084-0.207 0.127-0.428 0.127-0.652s-0.043-0.445-0.127-0.652-0.207-0.394-0.363-0.552l-10.526-10.702h39.446c0.444 0 0.869-0.179 1.183-0.498s0.49-0.752 0.49-1.203z"></path>
</symbol>
<symbol id="icon-twitter" viewBox="0 0 32 32">
<path d="M15.149 1.606c-8.012 0-14.507 6.495-14.507 14.507s6.495 14.507 14.507 14.507c8.012 0 14.507-6.495 14.507-14.507s-6.495-14.507-14.507-14.507zM21.050 13.489c0.006 0.124 0.008 0.248 0.008 0.369 0 3.778-2.873 8.131-8.128 8.131-1.553 0.003-3.074-0.443-4.379-1.285 0.222 0.027 0.45 0.038 0.681 0.038 1.339 0 2.57-0.455 3.548-1.222-0.596-0.012-1.173-0.209-1.651-0.565s-0.834-0.851-1.017-1.418c0.428 0.081 0.869 0.064 1.289-0.050-0.647-0.131-1.228-0.481-1.646-0.992s-0.646-1.15-0.646-1.81v-0.035c0.385 0.213 0.827 0.343 1.295 0.358-0.606-0.404-1.035-1.024-1.2-1.733s-0.051-1.455 0.316-2.084c0.718 0.883 1.613 1.604 2.627 2.119s2.126 0.81 3.262 0.868c-0.144-0.613-0.082-1.257 0.177-1.831s0.701-1.046 1.256-1.344c0.555-0.297 1.193-0.403 1.815-0.3s1.191 0.408 1.622 0.868c0.639-0.127 1.253-0.361 1.813-0.694-0.213 0.662-0.659 1.224-1.256 1.582 0.567-0.068 1.12-0.22 1.641-0.452-0.383 0.574-0.866 1.075-1.425 1.479v0z"></path>
</symbol>
<symbol id="icon-linkedin" viewBox="0 0 32 32">
<path d="M16.875 1.606c-8.012 0-14.507 6.495-14.507 14.507s6.495 14.507 14.507 14.507c8.012 0 14.507-6.495 14.507-14.507s-6.495-14.507-14.507-14.507zM13.324 22.125h-2.938v-9.453h2.938v9.453zM11.837 11.511c-0.928 0-1.528-0.657-1.528-1.47 0-0.83 0.618-1.467 1.566-1.467s1.528 0.638 1.546 1.467c0 0.813-0.598 1.47-1.584 1.47zM24.053 22.125h-2.938v-5.239c0-1.219-0.426-2.048-1.488-2.048-0.812 0-1.294 0.561-1.507 1.1-0.079 0.192-0.098 0.464-0.098 0.734v5.45h-2.939v-6.437c0-1.18-0.038-2.167-0.077-3.016h2.552l0.134 1.313h0.059c0.387-0.617 1.334-1.526 2.919-1.526 1.933 0 3.382 1.295 3.382 4.078v5.59z"></path>
</symbol>
<symbol id="icon-facebook" viewBox="0 0 32 32">
<path d="M1.607 16.197c0 7.513 5.456 13.76 12.593 15.027v-10.914h-3.778v-4.197h3.778v-3.358c0-3.778 2.434-5.876 5.877-5.876 1.090 0 2.267 0.167 3.357 0.335v3.862h-1.931c-1.847 0-2.267 0.923-2.267 2.099v2.938h4.030l-0.671 4.197h-3.358v10.914c7.136-1.267 12.593-7.513 12.593-15.027 0-8.358-6.8-15.195-15.111-15.195s-15.111 6.838-15.111 15.195z"></path>
</symbol>
<symbol id="icon-electric" viewBox="0 0 32 32">
<path fill="#7595fd" style="fill: var(--color1, #7595fd)" d="M0.156 14.049h17.63v17.63h-17.63v-17.63z"></path>
<path fill="#fff" style="fill: var(--color2, #fff)" d="M26.6 19.086c0-0.693-0.567-1.259-1.259-1.259h-2.518v2.519h2.518c0.693 0 1.259-0.567 1.259-1.259zM25.341 22.864h-2.518v2.519h2.518c0.693 0 1.259-0.567 1.259-1.259s-0.567-1.259-1.259-1.259zM15.267 19.086h-2.518v5.037h2.518c0 1.385 1.133 2.519 2.518 2.519h3.778v-10.074h-3.778c-1.385 0-2.518 1.133-2.518 2.518z"></path>
<path fill="#fff" style="fill: var(--color2, #fff)" d="M6.452 17.827c0-1.385 1.133-2.518 2.518-2.518h1.889c2.43 0 4.407-1.977 4.407-4.407s-1.977-4.407-4.407-4.407h-4.407c-0.693 0-1.259 0.567-1.259 1.259s0.567 1.259 1.259 1.259h4.407c1.045 0 1.889 0.844 1.889 1.889s-0.844 1.889-1.889 1.889h-1.889c-2.783 0-5.037 2.254-5.037 5.037s2.254 5.037 5.037 5.037h2.518v-2.519h-2.518c-1.385 0-2.518-1.133-2.518-2.518z"></path>
</symbol>
<symbol id="icon-consultation" viewBox="0 0 32 32">
<path fill="#7595fd" style="fill: var(--color1, #7595fd)" d="M0.156 14.204h17.63v17.63h-17.63v-17.63z"></path>
<path fill="#292e3d" style="fill: var(--color3, #292e3d)" d="M14.007 9.167h3.778l4.143-4.156c0.117-0.118 0.256-0.212 0.41-0.276s0.318-0.097 0.484-0.097 0.331 0.033 0.484 0.097c0.153 0.064 0.293 0.158 0.41 0.276l3.249 3.261c0.235 0.236 0.366 0.555 0.366 0.888s-0.132 0.652-0.366 0.888l-2.884 2.896h-10.074v2.518c0 0.334-0.133 0.654-0.369 0.89s-0.556 0.369-0.89 0.369c-0.334 0-0.654-0.133-0.89-0.369s-0.369-0.556-0.369-0.89v-3.778c0-0.668 0.265-1.309 0.738-1.781s1.113-0.738 1.781-0.738zM6.452 15.463v5.037l-2.884 2.884c-0.235 0.236-0.366 0.555-0.366 0.888s0.132 0.652 0.366 0.888l3.249 3.262c0.117 0.118 0.256 0.212 0.41 0.276s0.318 0.097 0.484 0.097c0.166 0 0.331-0.033 0.484-0.097s0.293-0.158 0.41-0.276l5.402-5.402h5.037c0.334 0 0.654-0.133 0.89-0.369s0.369-0.556 0.369-0.89v-1.259h1.259c0.334 0 0.654-0.133 0.891-0.369s0.369-0.557 0.369-0.891v-1.259h1.259c0.334 0 0.654-0.133 0.89-0.369s0.369-0.556 0.369-0.89v-1.259h-8.815v1.259c0 0.668-0.265 1.309-0.738 1.781s-1.113 0.738-1.781 0.738h-2.518c-0.668 0-1.309-0.265-1.781-0.738s-0.738-1.113-0.738-1.781v-3.778l-2.518 2.518z"></path>
</symbol>
<symbol id="icon-architecture" viewBox="0 0 32 32">
<path fill="#7595fd" style="fill: var(--color1, #7595fd)" d="M0.323 14.049h17.63v17.63h-17.63v-17.63z"></path>
<path fill="#292e3d" style="fill: var(--color3, #292e3d)" d="M8.332 25.105l0.315 2.795 2.040-1.939 3.488-9.57c-0.856-0.214-1.612-0.642-2.229-1.234l-3.614 9.948zM18.922 15.157c-0.617 0.592-1.385 1.020-2.229 1.234l3.488 9.57 2.040 1.939 0.327-2.795-3.627-9.948zM19.136 12.286c0.378-1.964-0.756-3.702-2.443-4.307v-1.486c0-0.693-0.567-1.259-1.259-1.259s-1.259 0.567-1.259 1.259v1.486c-1.461 0.529-2.518 1.914-2.518 3.551 0 2.317 2.090 4.156 4.483 3.715 1.486-0.277 2.707-1.473 2.997-2.959v0zM15.434 12.79c-0.693 0-1.259-0.567-1.259-1.259s0.567-1.259 1.259-1.259c0.693 0 1.259 0.567 1.259 1.259s-0.567 1.259-1.259 1.259z"></path>
</symbol>
<symbol id="icon-renovation" viewBox="0 0 32 32">
<path fill="#7595fd" style="fill: var(--color1, #7595fd)" d="M0.323 14.204h17.63v17.63h-17.63v-17.63z"></path>
<path fill="#fff" style="fill: var(--color2, #fff)" d="M24.878 5.389c-0.835 0.001-1.635 0.333-2.225 0.923s-0.922 1.391-0.923 2.225c0 0.45 0.098 0.876 0.269 1.266l-2.462 2.769c-0.836-0.577-1.828-0.886-2.845-0.886-0.932 0-1.793 0.272-2.542 0.713l-2.864-2.862-0.029 0.029c0.247-0.501 0.398-1.059 0.398-1.657 0-0.747-0.222-1.478-0.637-2.099s-1.005-1.105-1.695-1.391c-0.69-0.286-1.45-0.361-2.183-0.215s-1.406 0.506-1.934 1.034c-0.528 0.528-0.888 1.201-1.034 1.934s-0.071 1.492 0.215 2.183c0.286 0.69 0.77 1.28 1.391 1.695s1.352 0.637 2.099 0.637c0.598 0 1.155-0.151 1.657-0.398l-0.029 0.029 2.864 2.862c-0.463 0.768-0.709 1.647-0.714 2.544 0 1.255 0.479 2.391 1.24 3.275l-3.245 3.244c-0.364-0.146-0.752-0.221-1.143-0.223-1.735 0-3.148 1.412-3.148 3.148s1.413 3.148 3.148 3.148c1.735 0 3.148-1.412 3.148-3.148 0-0.404-0.083-0.788-0.223-1.145l3.574-3.574c0.53 0.189 1.092 0.311 1.686 0.311 2.778 0 5.037-2.259 5.037-5.037 0-0.801-0.205-1.548-0.539-2.221l2.666-3.001c0.322 0.111 0.662 0.185 1.021 0.185 1.737 0 3.148-1.412 3.148-3.148s-1.412-3.148-3.148-3.148zM16.693 19.241c-1.389 0-2.518-1.13-2.518-2.518s1.13-2.518 2.518-2.518c1.389 0 2.518 1.13 2.518 2.518s-1.13 2.518-2.518 2.518z"></path>
</symbol>
<symbol id="icon-repair" viewBox="0 0 32 32">
<path fill="#7595fd" style="fill: var(--color1, #7595fd)" d="M0.113 14.049h17.63v17.63h-17.63v-17.63z"></path>
<path fill="#fff" style="fill: var(--color2, #fff)" d="M22.779 21.605h-2.519v-1.259h-10.074v1.259h-2.518v-1.259h-5.037v6.296h25.185v-6.296h-5.037v1.259zM25.297 11.53h-3.778v-2.518c0-1.385-1.133-2.518-2.519-2.518h-7.555c-1.385 0-2.518 1.133-2.518 2.518v2.518h-3.778c-1.385 0-2.518 1.133-2.518 2.518v5.037h5.037v-2.518h2.518v2.518h10.074v-2.518h2.519v2.518h5.037v-5.037c0-1.385-1.133-2.518-2.519-2.518zM19.001 11.53h-7.555v-2.518h7.555v2.518z"></path>
</symbol>
<symbol id="icon-construction" viewBox="0 0 32 32">
<path fill="#7595fd" style="fill: var(--color1, #7595fd)" d="M0.113 14.204h17.63v17.63h-17.63v-17.63z"></path>
<path fill="#292e3d" style="fill: var(--color3, #292e3d)" d="M24.027 4.13h-12.569c-1.399 0-2.531 1.132-2.531 2.531v7.098l-5.921 5.846c-0.177 0.175-0.299 0.4-0.348 0.644s-0.026 0.498 0.069 0.729c0.095 0.231 0.256 0.428 0.463 0.568s0.451 0.213 0.7 0.214v6.296c0 0.334 0.133 0.654 0.369 0.89s0.556 0.369 0.89 0.369h20.148c0.334 0 0.654-0.133 0.89-0.369s0.369-0.556 0.369-0.89v-21.396c0-1.398-1.131-2.53-2.53-2.53zM13.866 20.64v6.156h-7.457v-7.012l3.761-3.713 3.696 3.782v0.787zM16.483 12.945h-2.518v-2.518h2.518v2.518zM21.52 23.019h-2.518v-2.519h2.518v2.519zM21.52 17.982h-2.518v-2.518h2.518v2.518zM21.52 12.945h-2.518v-2.518h2.518v2.518z"></path>
<path fill="#14171f" style="fill: var(--color4, #14171f)" d="M8.927 20.5h2.518v2.519h-2.518v-2.519z"></path>
</symbol>
<symbol id="icon-pencil" viewBox="0 0 32 32">
<path d="M29.203 22.322l-6.989-6.989 1.977-1.977-4.722-4.722-1.977 1.977-6.989-6.989-5.956 5.956 6.989 6.989-5.994 5.994v4.722h4.722l5.994-5.994 6.989 6.989 5.956-5.956zM13.324 14.779l-5.213-5.201 2.393-2.393 1.599 1.599-1.499 1.499 1.776 1.776 1.499-1.499 1.826 1.826-2.38 2.393zM18.046 19.501l2.393-2.393 1.826 1.826-1.499 1.498 1.775 1.776 1.499-1.499 1.599 1.599-2.392 2.393-5.201-5.201zM20.82 7.29l3.196-3.197 4.72 4.72-3.196 3.197-4.72-4.72z"></path>
</symbol>
<symbol id="icon-headphones" viewBox="0 0 32 32">
<path d="M27.813 10.913c0.668 0 1.309 0.265 1.781 0.738s0.738 1.113 0.738 1.781v5.037c0 0.668-0.265 1.309-0.738 1.781s-1.113 0.738-1.781 0.738h-1.337c-0.307 2.434-1.492 4.673-3.332 6.296s-4.21 2.518-6.664 2.518v-2.518c2.004 0 3.926-0.796 5.343-2.213s2.213-3.339 2.213-5.343v-7.556c0-2.004-0.796-3.926-2.213-5.343s-3.339-2.213-5.343-2.213-3.926 0.796-5.343 2.213c-1.417 1.417-2.213 3.339-2.213 5.343v8.815h-3.778c-0.668 0-1.309-0.265-1.781-0.738s-0.738-1.113-0.738-1.781v-5.037c0-0.668 0.265-1.309 0.738-1.781s1.113-0.738 1.781-0.738h1.337c0.307-2.434 1.492-4.673 3.333-6.295s4.21-2.518 6.663-2.518c2.454 0 4.823 0.895 6.663 2.518s3.025 3.861 3.333 6.295h1.337zM11.141 20.716l1.335-2.136c1.2 0.752 2.588 1.149 4.004 1.147 1.416 0.002 2.804-0.395 4.005-1.147l1.335 2.136c-1.6 1.003-3.451 1.533-5.339 1.53-1.888 0.003-3.739-0.527-5.339-1.53z"></path>
</symbol>
<symbol id="icon-logo" viewBox="0 0 27 32">
<path fill="#2947a9" style="fill: var(--color5, #2947a9)" d="M13.732 24.224v6.957l12.201-7.047v-6.956l-12.201 7.046z"></path>
<path fill="#0b267d" style="fill: var(--color6, #0b267d)" d="M19.194 10.787l6.020-3.479-11.482-6.633v6.957l5.462 3.155z"></path>
<path fill="#91a1d4" style="fill: var(--color7, #91a1d4)" d="M8.99 12.864v6.959l4.742 2.738v-6.956l-4.742-2.741z"></path>
<path fill="#2947a9" style="fill: var(--color5, #2947a9)" d="M25.933 8.556l-12.201 7.050v6.956l12.201-7.047v-6.959z"></path>
<path fill="#2947a9" style="fill: var(--color5, #2947a9)" d="M2.255 7.305l5.984 3.499 5.492-3.171v-6.957l-11.476 6.629z"></path>
<path fill="#91a1d4" style="fill: var(--color7, #91a1d4)" d="M7.551 20.655v-8.625l-6.022-3.477v15.581l12.203 7.047v-6.957l-6.181-3.568z"></path>
</symbol>
</defs>
</svg>
